<svg width="128" height="128" viewBox="0 0 128 128" fill="none" xmlns="http://www.w3.org/2000/svg">
<rect width="128" height="128" rx="20" fill="#F02E65"/>
<path d="M68 98.1C60.0667 98.1 53.3333 96.6 47.8 93.6C42.3333 90.6 38.1667 86.4 35.3 81C32.4333 75.6 31 69.2667 31 62C31 56.4 31.8333 51.3667 33.5 46.9C35.2333 42.3667 37.7 38.5334 40.9 35.4C44.1667 32.2 48.1 29.7334 52.7 28C57.3667 26.2667 62.6333 25.4 68.5 25.4C72.1 25.4 75.7 25.8 79.3 26.6C82.9 27.4 86.3667 28.7334 89.7 30.6C91.1 31.4 92.0333 32.4334 92.5 33.7C93.0333 34.9 93.1667 36.2 92.9 37.6C92.7 38.9334 92.1667 40.1334 91.3 41.2C90.5 42.2 89.4333 42.8667 88.1 43.2C86.8333 43.4667 85.3667 43.2 83.7 42.4C81.5 41.2 79.1667 40.3334 76.7 39.8C74.2333 39.2 71.5333 38.9 68.6 38.9C63.8667 38.9 59.9 39.8 56.7 41.6C53.5 43.3334 51.1 45.9334 49.5 49.4C47.9667 52.8 47.2 57 47.2 62C47.2 69.5334 49 75.2334 52.6 79.1C56.2667 82.9667 61.6667 84.9 68.8 84.9C71.2 84.9 73.6667 84.6667 76.2 84.2C78.7333 83.7334 81.2333 83.0667 83.7 82.2L80.8 88.5V69.3H71.8C69.8 69.3 68.2667 68.8 67.2 67.8C66.1333 66.8 65.6 65.4334 65.6 63.7C65.6 61.9 66.1333 60.5334 67.2 59.6C68.2667 58.6 69.8 58.1 71.8 58.1H87.5C89.5 58.1 91 58.6334 92 59.7C93.0667 60.7667 93.6 62.3 93.6 64.3V87.5C93.6 89.2334 93.2667 90.7 92.6 91.9C91.9333 93.1 90.8 93.9667 89.2 94.5C86.2 95.5667 82.8333 96.4334 79.1 97.1C75.3667 97.7667 71.6667 98.1 68 98.1Z" fill="white"/>
</svg>
